<svg xmlns="http://www.w3.org/2000/svg" width="32" height="32" viewBox="0 0 32 32">
  <defs>
    <linearGradient id="docufind-gradient" x1="0%" y1="0%" x2="100%" y2="100%">
      <stop offset="0%" stop-color="#2563eb"/>
      <stop offset="100%" stop-color="#1d4ed8"/>
    </linearGradient>
  </defs>
  <rect width="32" height="32" rx="8" fill="url(#docufind-gradient)"/>
  <g transform="translate(8, 8)">
    <path d="M14.5 2H6a2 2 0 0 0-2 2v8a2 2 0 0 0 2 2h8a2 2 0 0 0 2-2V4.5L14.5 2z" fill="white"/>
    <polyline points="14,2 14,6 18,6" fill="white"/>
    <line x1="16" y1="13" x2="8" y2="13" stroke="#2563eb" stroke-width="1"/>
    <line x1="16" y1="17" x2="8" y2="17" stroke="#2563eb" stroke-width="1"/>
    <polyline points="10,9 9,10 11,12" stroke="#2563eb" stroke-width="1" fill="none"/>
  </g>
</svg>
